<?xml version="1.0" encoding="UTF-8" standalone="no"?>
<!DOCTYPE svg PUBLIC "-//W3C//DTD SVG 1.1//EN" "http://www.w3.org/Graphics/SVG/1.1/DTD/svg11.dtd">
<svg width="100%" height="100%" viewBox="0 0 512 512" version="1.1" xmlns="http://www.w3.org/2000/svg" xmlns:xlink="http://www.w3.org/1999/xlink" xml:space="preserve" xmlns:serif="http://www.serif.com/" style="fill-rule:evenodd;clip-rule:evenodd;stroke-linecap:round;stroke-miterlimit:10;">
    <path d="M436.67,184.11C426.144,194.569 408.896,194.569 398.37,184.11L375.89,161.62C365.427,151.099 365.427,133.851 375.89,123.33L426.78,72.44C426.94,72.281 427.029,72.064 427.029,71.839C427.029,71.502 426.829,71.195 426.52,71.06C393.68,57 351.09,64.15 324.05,91C298.17,116.69 296.7,155.27 306.18,189C308.923,198.754 305.953,209.264 298.51,216.14L125.51,376.9C116.879,384.628 111.94,395.681 111.94,407.265C111.94,429.626 130.34,448.025 152.7,448.025C164.293,448.025 175.351,443.08 183.08,434.44L345.23,261.14C352.029,253.824 362.353,250.854 372,253.44C405.46,262.38 443.49,260.7 469.07,235.5C496.56,208.42 502.49,160.56 489.17,133.17C489.026,132.883 488.731,132.702 488.41,132.702C488.185,132.702 487.969,132.791 487.81,132.95L436.67,184.11Z" style="fill:none;fill-rule:nonzero;stroke:rgb(196,201,216);stroke-width:32px;"/>
    <path d="M224,284C206.52,267 198.51,259.09 193,253.71C187.356,248.103 186.002,239.42 189.67,232.36C190.615,230.664 191.793,229.109 193.17,227.74L208.85,212.45C210.472,210.825 212.381,209.513 214.48,208.58C221.245,205.586 229.194,207.024 234.48,212.2C239.93,217.49 249.91,227.2 267.89,244.72M317.07,291.3C358.02,329.4 407.69,374.57 427.07,390.71C430.17,393.265 431.969,397.079 431.969,401.096C431.969,404.673 430.543,408.105 428.01,410.63L394.63,444C392.015,446.555 388.501,447.986 384.846,447.986C380.827,447.986 376.996,446.256 374.34,443.24C357.81,424.06 313.25,376.13 275.07,336.24" style="fill:none;fill-rule:nonzero;stroke:rgb(196,201,216);stroke-width:32px;stroke-linejoin:round;stroke-miterlimit:4;"/>
    <path d="M17.34,193.5L46.75,164.76C47.657,163.868 48.888,163.381 50.16,163.41C51.429,163.396 52.654,163.881 53.57,164.76C55.727,166.893 58.751,167.916 61.76,167.53C65.59,167.11 69.68,165.93 72.33,163.41C78.33,157.61 71.39,146.18 76.67,138.87C82.707,130.868 89.318,123.314 96.45,116.27C102.45,110.39 126.29,87.95 166.35,71.82C179.161,66.642 192.852,63.986 206.67,64C229.26,64 246.67,74 252.93,79.67C256.687,83.245 260.127,87.14 263.21,91.31C260.199,90.2 257.123,89.275 254,88.54C247.431,87.146 240.692,86.722 234,87.28C220.67,88.37 204.59,94.54 196,101.28C182.1,112.28 176.13,127 175.19,145.99C174.51,160.11 177.91,168.09 211.29,201.48C213.647,204.111 213.495,208.191 210.95,210.64L192.73,228.64C190.106,231.212 185.862,231.252 183.19,228.73C161.25,206.79 146.54,195.64 138.19,190.57C129.84,185.5 123.12,184.07 119.89,183.72C113.547,183.092 107.163,184.444 101.62,187.59C100.647,188.124 99.758,188.798 98.98,189.59C96.43,192.226 95.002,195.754 95.002,199.422C95.002,203.294 96.593,207.002 99.4,209.67L101.11,211.27C102.006,212.141 102.513,213.34 102.513,214.59C102.513,215.84 102.006,217.039 101.11,217.91L71.73,246.6C70.831,247.51 69.599,248.016 68.32,248C67.051,248.013 65.826,247.528 64.91,246.65L17.34,200.22C15.562,198.348 15.562,195.372 17.34,193.5Z" style="fill:none;fill-rule:nonzero;stroke:rgb(196,201,216);stroke-width:32px;stroke-linejoin:round;stroke-miterlimit:4;"/>
</svg>
