<?xml version="1.0" encoding="UTF-8" standalone="no"?>
<!DOCTYPE svg PUBLIC "-//W3C//DTD SVG 1.1//EN" "http://www.w3.org/Graphics/SVG/1.1/DTD/svg11.dtd">
<svg width="100%" height="100%" viewBox="0 0 512 512" version="1.1" xmlns="http://www.w3.org/2000/svg" xmlns:xlink="http://www.w3.org/1999/xlink" xml:space="preserve" xmlns:serif="http://www.serif.com/" style="fill-rule:evenodd;clip-rule:evenodd;stroke-linecap:round;stroke-linejoin:round;">
    <path d="M262.29,192.31C260.2,192.104 258.1,192 256,192C220.89,192 192,220.891 192,256C192,291.11 220.89,320 256,320C291.109,320 320,291.11 320,256C320,253.9 319.896,251.8 319.69,249.71C316.653,219.476 292.524,195.347 262.29,192.31ZM416.39,256C416.349,262.957 415.838,269.902 414.86,276.79L460.07,312.25C464.118,315.606 465.16,321.453 462.52,326L419.75,400C417.08,404.503 411.503,406.451 406.61,404.59L361.71,386.51C356.685,384.509 350.977,385.168 346.54,388.26C339.688,392.979 332.487,397.171 325,400.8C320.225,403.121 316.912,407.681 316.18,412.94L309.45,460.83C308.542,466.026 304.043,469.888 298.77,470L213.23,470C208.048,469.91 203.584,466.206 202.54,461.13L195.82,413.31C195.054,407.993 191.671,403.399 186.82,401.09C179.342,397.48 172.166,393.277 165.36,388.52C160.938,385.443 155.248,384.799 150.25,386.81L105.36,404.88C100.469,406.742 94.893,404.799 92.22,400.3L49.45,326.3C46.806,321.753 47.848,315.903 51.9,312.55L90.11,282.55C94.359,279.177 96.62,273.871 96.11,268.47C95.75,264.3 95.53,260.14 95.53,255.97C95.53,251.8 95.74,247.7 96.11,243.62C96.564,238.253 94.279,233.004 90.04,229.68L51.85,199.68C47.865,196.311 46.861,190.513 49.48,186L92.25,112C94.92,107.497 100.497,105.549 105.39,107.41L150.29,125.49C155.315,127.491 161.023,126.832 165.46,123.74C172.312,119.021 179.513,114.829 187,111.2C191.775,108.879 195.088,104.319 195.82,99.06L202.55,51.17C203.458,45.974 207.957,42.112 213.23,42L298.77,42C303.952,42.09 308.416,45.794 309.46,50.87L316.18,98.69C316.946,104.007 320.329,108.601 325.18,110.91C332.658,114.52 339.834,118.723 346.64,123.48C351.062,126.557 356.752,127.201 361.75,125.19L406.64,107.12C411.531,105.258 417.107,107.201 419.78,111.7L462.55,185.7C465.194,190.247 464.152,196.097 460.1,199.45L421.89,229.45C417.623,232.812 415.342,238.12 415.84,243.53C416.17,247.67 416.39,251.83 416.39,256Z" style="fill:none;fill-rule:nonzero;stroke:rgb(195,201,218);stroke-width:32px;"/>
</svg>
