<?xml version="1.0" encoding="UTF-8" standalone="no"?>
<!DOCTYPE svg PUBLIC "-//W3C//DTD SVG 1.1//EN" "http://www.w3.org/Graphics/SVG/1.1/DTD/svg11.dtd">
<svg width="100%" height="100%" viewBox="0 0 512 512" version="1.1" xmlns="http://www.w3.org/2000/svg" xmlns:xlink="http://www.w3.org/1999/xlink" xml:space="preserve" xmlns:serif="http://www.serif.com/" style="fill-rule:evenodd;clip-rule:evenodd;stroke-linejoin:round;stroke-miterlimit:2;">
    <path d="M258.9,48C141.92,46.42 46.42,141.92 48,258.9C49.56,371.09 140.91,462.44 253.1,464C370.1,465.6 465.58,370.1 463.98,253.12C462.44,140.91 371.09,49.56 258.9,48ZM385.32,375.25C384.563,376.068 383.498,376.534 382.383,376.534C381.123,376.534 379.935,375.939 379.18,374.93C370.236,363.228 359.282,353.208 346.83,345.34C321.37,329 289.11,320 256,320C222.89,320 190.63,329 165.17,345.34C152.719,353.205 141.765,363.221 132.82,374.92C132.065,375.929 130.877,376.524 129.617,376.524C128.502,376.524 127.437,376.058 126.68,375.24C97.345,343.573 80.715,302.161 80,259C78.37,161.69 158.22,80.24 255.57,80C352.92,79.76 432,158.81 432,256C432.034,300.2 415.351,342.818 385.32,375.25Z" style="fill:rgb(197,200,216);fill-rule:nonzero;"/>
    <path d="M256,144C236.28,144 218.45,151.39 205.78,164.82C193.11,178.25 186.78,196.82 188.21,216.75C191.11,256 221.52,288 256,288C290.48,288 320.83,256 323.79,216.76C325.27,197.02 318.99,178.62 306.11,164.94C293.39,151.44 275.59,144 256,144Z" style="fill:rgb(196,201,216);fill-rule:nonzero;stroke:rgb(196,201,216);stroke-width:1px;"/>
</svg>
