<?xml version="1.0" standalone="no"?>
<!DOCTYPE svg PUBLIC "-//W3C//DTD SVG 20010904//EN"
 "http://www.w3.org/TR/2001/REC-SVG-20010904/DTD/svg10.dtd">
<svg version="1.0" xmlns="http://www.w3.org/2000/svg"
 width="700.000000pt" height="700.000000pt" viewBox="0 0 700.000000 700.000000"
 preserveAspectRatio="xMidYMid meet">
<metadata>
Created by potrace 1.14, written by Peter Selinger 2001-2017
</metadata>
<g transform="translate(0.000000,700.000000) scale(0.100000,-0.100000)"
fill="#000000" stroke="none">
<path d="M3770 6938 c-23 -4 -47 -11 -54 -16 -9 -8 -192 -112 -446 -254 -25
-14 -133 -75 -240 -135 -169 -95 -327 -184 -500 -281 -25 -14 -133 -75 -240
-135 -107 -61 -215 -121 -240 -135 -25 -14 -205 -115 -400 -225 -195 -110
-380 -214 -410 -231 -30 -17 -120 -67 -198 -111 -79 -44 -151 -85 -160 -90 -9
-6 -66 -38 -127 -71 -60 -34 -128 -71 -150 -84 -22 -12 -67 -38 -100 -56 -33
-18 -143 -80 -245 -138 -102 -58 -189 -107 -194 -109 -11 -4 -12 -3151 -2
-3242 15 -127 17 -140 21 -155 2 -8 7 -31 11 -50 7 -41 7 -42 23 -100 7 -25
15 -52 18 -60 3 -8 7 -19 8 -25 29 -118 173 -385 283 -525 58 -74 242 -252
316 -307 260 -192 576 -314 883 -338 48 -4 432 -8 853 -8 l765 0 55 32 c30 17
62 36 70 41 8 5 38 21 65 36 28 15 136 75 240 134 105 59 354 200 555 313 201
112 383 215 405 227 40 23 145 82 240 135 28 15 55 31 60 35 6 4 42 24 80 45
39 21 322 180 630 353 308 173 637 357 730 410 94 52 186 105 205 117 19 12
50 28 68 36 17 7 32 17 32 21 0 5 5 8 10 8 6 0 52 24 103 53 50 29 104 59 120
66 15 9 27 23 28 35 0 12 1 723 1 1581 1 1387 -2 1679 -17 1735 -2 8 -6 31 -9
50 -38 261 -183 573 -372 800 -272 327 -633 532 -1069 605 -16 2 -68 8 -113
11 -115 9 -1540 11 -1592 2z m-1710 -1341 c63 -35 138 -77 165 -92 28 -16 221
-125 430 -243 209 -118 418 -236 465 -262 106 -59 143 -80 233 -131 40 -23 97
-55 127 -72 30 -16 84 -47 120 -67 56 -33 1247 -703 1370 -772 25 -14 124 -70
220 -124 96 -55 182 -103 190 -107 8 -4 29 -15 45 -25 17 -10 51 -31 77 -45
117 -65 216 -121 246 -140 l34 -20 -64 -36 c-34 -21 -88 -51 -118 -68 -30 -16
-149 -83 -265 -148 -115 -65 -230 -129 -254 -143 -25 -14 -67 -38 -93 -53 -27
-16 -50 -29 -52 -29 -2 0 -79 -43 -172 -96 -93 -53 -194 -110 -224 -126 -30
-17 -84 -47 -120 -68 -36 -21 -92 -52 -125 -70 -76 -42 -66 -36 -400 -225
-154 -87 -302 -170 -330 -185 -27 -16 -115 -65 -195 -110 -80 -45 -174 -98
-210 -118 -36 -20 -103 -57 -149 -84 -46 -26 -86 -48 -88 -48 -2 0 -20 -11
-41 -23 -20 -13 -66 -40 -102 -59 -36 -20 -119 -66 -185 -103 -66 -38 -138
-78 -160 -90 -125 -70 -445 -250 -472 -267 l-33 -20 0 2172 c0 1194 3 2169 8
2167 4 -3 59 -34 122 -70z"/>
</g>
</svg>
